<?xml version="1.0" standalone="no"?>
<svg
  width="600"
  height="600"
  viewBox="0 0 600 600"
  xmlns="http://www.w3.org/2000/svg"
>
  <g transform="translate(300,300)">
    <path d="M139.3,-196.5C174.9,-166,193.9,-117.6,213.2,-67.2C232.4,-16.8,251.7,35.6,242.8,83.7C233.8,131.8,196.5,175.5,151.4,207C106.2,238.5,53.1,257.7,5.6,250.1C-41.9,242.4,-83.9,207.8,-121.3,173.7C-158.7,139.7,-191.6,106.3,-205.5,66.1C-219.4,26,-214.3,-21,-202.1,-67.8C-189.8,-114.6,-170.5,-161.3,-135.6,-191.9C-100.7,-222.6,-50.4,-237.3,0.8,-238.4C51.9,-239.5,103.8,-226.9,139.3,-196.5Z" fill="#f7f2f3" />
  </g>
</svg>
  